<svg aria-hidden="true" style="position: absolute; width: 0; height: 0; overflow: hidden;" version="1.1" xmlns="http://www.w3.org/2000/svg" xmlns:xlink="http://www.w3.org/1999/xlink">
<defs>
<symbol id="icon-Ellipse-3-2" viewBox="0 0 32 32">
<path style="fill: var(--color1, #4d5ae5)" d="M32 16c0 0.006 0 0.013 0 0.021 0 4.412-1.791 8.405-4.686 11.293l-0 0c-2.888 2.895-6.881 4.686-11.293 4.686-0.007 0-0.015 0-0.022 0h0.001c-0.006 0-0.013 0-0.021 0-4.412 0-8.405-1.791-11.293-4.686l-0-0c-2.895-2.888-4.686-6.881-4.686-11.293 0-0.007 0-0.015 0-0.022v0.001c0-0.006 0-0.013 0-0.020 0-4.412 1.791-8.405 4.686-11.293l0-0c2.888-2.895 6.881-4.686 11.293-4.686 0.007 0 0.014 0 0.021 0h-0.001c0.006 0 0.013 0 0.021 0 4.412 0 8.405 1.791 11.293 4.686l0 0c2.895 2.888 4.686 6.881 4.686 11.293 0 0.007 0 0.015 0 0.022v-0.001z"></path>
<path style="fill: var(--color2, #f4f4fd)" d="M25.595 25.6v-0.001h0.005v-7.042c0-3.445-0.742-6.098-4.768-6.098-1.937 0-3.236 1.062-3.766 2.070h-0.056v-1.748h-3.818v12.818h3.976v-6.347c0-1.671 0.317-3.287 2.386-3.287 2.040 0 2.070 1.907 2.070 3.394v6.241h3.972zM6.717 12.782h3.981v12.818h-3.981v-12.818zM8.706 6.4c-1.273 0-2.305 1.032-2.306 2.306v0c0 1.273 1.033 2.327 2.306 2.327s2.306-1.054 2.306-2.327c-0.001-1.273-1.033-2.305-2.306-2.306h-0z"></path>
</symbol>
<symbol id="icon-Ellipse-2-2" viewBox="0 0 32 32">
<path style="fill: var(--color1, #4d5ae5)" d="M32 16c0 0.006 0 0.013 0 0.021 0 4.412-1.791 8.405-4.686 11.293l-0 0c-2.888 2.895-6.881 4.686-11.293 4.686-0.007 0-0.015 0-0.022 0h0.001c-0.006 0-0.013 0-0.021 0-4.412 0-8.405-1.791-11.293-4.686l-0-0c-2.895-2.888-4.686-6.881-4.686-11.293 0-0.007 0-0.015 0-0.022v0.001c0-0.006 0-0.013 0-0.020 0-4.412 1.791-8.405 4.686-11.293l0-0c2.888-2.895 6.881-4.686 11.293-4.686 0.007 0 0.014 0 0.021 0h-0.001c0.006 0 0.013 0 0.021 0 4.412 0 8.405 1.791 11.293 4.686l0 0c2.895 2.888 4.686 6.881 4.686 11.293 0 0.007 0 0.015 0 0.022v-0.001z"></path>
<path style="fill: var(--color2, #f4f4fd)" d="M19.198 9.588h1.753v-3.053c-0.302-0.042-1.342-0.135-2.554-0.135-2.527 0-4.258 1.59-4.258 4.511v2.689h-2.789v3.413h2.789v8.587h3.419v-8.586h2.676l0.425-3.413h-3.102v-2.351c0.001-0.986 0.266-1.662 1.641-1.662z"></path>
</symbol>
<symbol id="icon-Ellipse-1-2" viewBox="0 0 32 32">
<path style="fill: var(--color1, #4d5ae5)" d="M32 16c0 0.006 0 0.013 0 0.021 0 4.412-1.791 8.405-4.686 11.293l-0 0c-2.888 2.895-6.881 4.686-11.293 4.686-0.007 0-0.015 0-0.022 0h0.001c-0.006 0-0.013 0-0.021 0-4.412 0-8.405-1.791-11.293-4.686l-0-0c-2.895-2.888-4.686-6.881-4.686-11.293 0-0.007 0-0.015 0-0.022v0.001c0-0.006 0-0.013 0-0.020 0-4.412 1.791-8.405 4.686-11.293l0-0c2.888-2.895 6.881-4.686 11.293-4.686 0.007 0 0.014 0 0.021 0h-0.001c0.006 0 0.013 0 0.021 0 4.412 0 8.405 1.791 11.293 4.686l0 0c2.895 2.888 4.686 6.881 4.686 11.293 0 0.007 0 0.015 0 0.022v-0.001z"></path>
<path style="fill: var(--color2, #f4f4fd)" d="M25.6 10.047c-0.714 0.313-1.474 0.52-2.268 0.622 0.816-0.49 1.429-1.247 1.724-2.148l0.008-0.028c-0.718 0.434-1.555 0.764-2.446 0.944l-0.050 0.008c-0.72-0.768-1.741-1.247-2.874-1.247-2.173 0-3.935 1.762-3.935 3.935 0 0.001 0 0.002 0 0.003v-0c0 0.312 0.026 0.613 0.091 0.898-3.273-0.16-6.168-1.728-8.114-4.118-0.338 0.57-0.537 1.256-0.538 1.989v0c0 1.363 0.702 2.572 1.748 3.271-0.655-0.018-1.265-0.196-1.798-0.495l0.020 0.010v0.043c0.002 1.899 1.342 3.484 3.128 3.863l0.026 0.005c-0.32 0.087-0.67 0.13-1.032 0.13-0.018 0-0.040 0.001-0.062 0.001-0.242 0-0.478-0.025-0.706-0.072l0.023 0.004c0.51 1.558 1.957 2.704 3.678 2.742-1.329 1.047-3.027 1.679-4.872 1.679-0.003 0-0.005 0-0.008 0h0c-0.323 0-0.633-0.014-0.942-0.054 1.696 1.108 3.772 1.766 6.003 1.766 0.013 0 0.025-0 0.038-0h-0.002c7.243 0 11.203-6 11.203-11.201 0-0.174-0.006-0.342-0.014-0.509 0.779-0.562 1.434-1.24 1.955-2.015l0.018-0.028z"></path>
</symbol>
<symbol id="icon-Ellipse-2" viewBox="0 0 32 32">
<path style="fill: var(--color1, #4d5ae5)" d="M32 16c0 0.006 0 0.013 0 0.021 0 4.412-1.791 8.405-4.686 11.293l-0 0c-2.888 2.895-6.881 4.686-11.293 4.686-0.007 0-0.015 0-0.022 0h0.001c-0.006 0-0.013 0-0.021 0-4.412 0-8.405-1.791-11.293-4.686l-0-0c-2.895-2.888-4.686-6.881-4.686-11.293 0-0.007 0-0.015 0-0.022v0.001c0-0.006 0-0.013 0-0.020 0-4.412 1.791-8.405 4.686-11.293l0-0c2.888-2.895 6.881-4.686 11.293-4.686 0.007 0 0.014 0 0.021 0h-0.001c0.006 0 0.013 0 0.021 0 4.412 0 8.405 1.791 11.293 4.686l0 0c2.895 2.888 4.686 6.881 4.686 11.293 0 0.007 0 0.015 0 0.022v-0.001z"></path>
<path style="fill: var(--color2, #f4f4fd)" d="M25.582 12.045c-0.046-1.020-0.21-1.722-0.446-2.329-0.254-0.667-0.632-1.235-1.11-1.702l-0.001-0.001c-0.468-0.475-1.035-0.851-1.667-1.095l-0.032-0.011c-0.611-0.236-1.309-0.402-2.33-0.446-1.027-0.048-1.354-0.060-3.96-0.060s-2.934 0.011-3.958 0.056c-1.020 0.046-1.722 0.21-2.329 0.446-0.667 0.254-1.235 0.632-1.702 1.11l-0.001 0.001c-0.475 0.468-0.851 1.035-1.095 1.667l-0.011 0.032c-0.236 0.611-0.402 1.309-0.446 2.329-0.048 1.028-0.060 1.354-0.060 3.961s0.011 2.934 0.056 3.958c0.046 1.020 0.21 1.721 0.447 2.329 0.256 0.666 0.633 1.234 1.109 1.703l0.001 0.001c0.48 0.488 1.062 0.866 1.699 1.106 0.611 0.236 1.309 0.401 2.33 0.446 1.024 0.045 1.35 0.056 3.957 0.056s2.933-0.011 3.957-0.056c1.020-0.046 1.722-0.21 2.33-0.446 1.294-0.51 2.299-1.515 2.797-2.776l0.012-0.033c0.237-0.611 0.402-1.309 0.446-2.329 0.045-1.024 0.056-1.35 0.056-3.958s-0.003-2.933-0.048-3.957zM23.852 19.884c-0.041 0.938-0.198 1.444-0.33 1.782-0.331 0.84-0.983 1.492-1.802 1.815l-0.022 0.008c-0.338 0.132-0.848 0.289-1.782 0.33-1.013 0.045-1.316 0.056-3.878 0.056s-2.869-0.011-3.878-0.056c-0.938-0.042-1.444-0.198-1.782-0.33-0.432-0.161-0.801-0.405-1.102-0.715l-0.001-0.001c-0.31-0.302-0.554-0.67-0.71-1.082l-0.007-0.021c-0.131-0.338-0.288-0.848-0.33-1.782-0.045-1.013-0.056-1.317-0.056-3.878s0.011-2.87 0.056-3.878c0.041-0.938 0.198-1.444 0.33-1.782 0.154-0.416 0.398-0.795 0.72-1.103 0.303-0.31 0.671-0.554 1.083-0.709l0.021-0.007c0.337-0.131 0.847-0.288 1.781-0.33 1.013-0.045 1.317-0.056 3.878-0.056 2.566 0 2.87 0.011 3.878 0.056 0.938 0.042 1.444 0.199 1.782 0.33 0.416 0.154 0.795 0.398 1.102 0.716 0.319 0.312 0.562 0.686 0.717 1.103 0.131 0.338 0.288 0.848 0.33 1.782 0.045 1.013 0.056 1.317 0.056 3.878s-0.011 2.862-0.056 3.874z"></path>
<path style="fill: var(--color2, #f4f4fd)" d="M16.035 11.070c-2.723 0.001-4.931 2.209-4.932 4.932v0c0.001 2.724 2.208 4.931 4.932 4.932h0c2.724-0 4.932-2.208 4.933-4.932v-0c-0.001-2.724-2.209-4.932-4.933-4.932h-0zM16.035 19.201c-1.767-0-3.199-1.433-3.199-3.2s1.433-3.2 3.2-3.2c0 0 0.001 0 0.001 0h-0c1.767 0 3.199 1.433 3.199 3.2s-1.433 3.2-3.2 3.2c-0 0-0.001 0-0.001 0h0zM22.314 10.874c0 0.009 0 0.020 0 0.030 0 0.636-0.516 1.152-1.152 1.152s-1.152-0.516-1.152-1.152c0-0.011 0-0.021 0-0.032l-0 0.002c0.017-0.623 0.526-1.122 1.152-1.122s1.135 0.499 1.152 1.12l0 0.002z"></path>
</symbol>
<symbol id="icon-Icon-4-1" viewBox="0 0 75 32">
<path style="fill: var(--color2, #f4f4fd)" d="M1.143 0.143h73.143c0.552 0 1 0.448 1 1v29.714c0 0.552-0.448 1-1 1h-73.143c-0.552 0-1-0.448-1-1v-29.714c0-0.552 0.448-1 1-1z"></path>
<path style="fill: var(--color1, #4d5ae5)" d="M46.842 9.442c-0.037-0.109-0.13-0.19-0.244-0.207l-0.002-0-1.091-0.159-0.489-0.989c-0.103-0.209-0.444-0.209-0.547 0l-0.489 0.989-1.092 0.159c-0.116 0.017-0.21 0.098-0.246 0.205l-0.001 0.002c-0.035 0.11-0.006 0.231 0.077 0.313l0.79 0.77-0.187 1.087c-0.019 0.114 0.027 0.23 0.121 0.298 0.095 0.069 0.219 0.077 0.321 0.023l0.977-0.513 0.977 0.513c0.041 0.022 0.090 0.035 0.142 0.035 0.067 0 0.129-0.022 0.18-0.059l-0.001 0.001c0.094-0.069 0.141-0.184 0.121-0.298l-0.186-1.087 0.79-0.77c0.057-0.056 0.092-0.133 0.092-0.218 0-0.034-0.005-0.066-0.015-0.096l0.001 0.002zM45.435 10.201c-0.071 0.070-0.105 0.171-0.087 0.27l0.109 0.637-0.572-0.3c-0.041-0.022-0.090-0.035-0.142-0.035s-0.101 0.013-0.144 0.036l0.002-0.001-0.572 0.3 0.109-0.637c0.003-0.016 0.004-0.033 0.004-0.052 0-0.085-0.035-0.163-0.092-0.218l-0-0-0.463-0.451 0.639-0.093c0.099-0.014 0.185-0.077 0.229-0.167l0.286-0.579 0.286 0.579c0.045 0.090 0.13 0.152 0.23 0.167l0.639 0.093-0.462 0.451zM43.505 18.584h-0.609v0.61h0.609v-0.61zM43.505 19.803h-0.609v0.61h0.609v-0.61zM44.114 19.194h-0.609v0.609h0.609v-0.609zM42.895 19.194h-0.61v0.609h0.61v-0.609zM41.371 21.937h-0.609v0.609h0.609v-0.609zM41.371 23.156h-0.609v0.609h0.609v-0.609zM41.981 22.546h-0.61v0.61h0.61v-0.61zM40.762 22.546h-0.61v0.61h0.61v-0.61zM37.714 20.717h-0.609v0.61h0.609v-0.61zM37.714 21.937h-0.609v0.609h0.609v-0.609zM38.324 21.327h-0.609v0.61h0.609v-0.61zM37.105 21.327h-0.61v0.61h0.61v-0.61zM31.924 10.355h-0.609v0.609h0.609v-0.609zM31.924 11.574h-0.609v0.61h0.609v-0.609zM32.533 10.965h-0.609v0.61h0.609v-0.61zM31.314 10.965h-0.61v0.61h0.61v-0.61z"></path>
<path style="fill: var(--color3, #2e2f42)" d="M42.694 14.948c-0.16-0.215-0.399-0.364-0.674-0.402l-0.005-0.001c-0.044-0.007-0.094-0.010-0.145-0.010-0.235 0-0.451 0.080-0.623 0.214l0.002-0.002-0.715 0.548-1.085 0.81-0.776-0.309c1.383-0.621 2.351-2.005 2.351-3.611 0-2.185-1.784-3.962-3.978-3.962s-3.978 1.777-3.978 3.962c0 0.792 0.237 1.528 0.64 2.148l-1.582-0.014c-0.005 0-0.009 0.002-0.013 0.003-0.032 0.002-0.062 0.008-0.091 0.018l0.002-0.001c-0.007 0.003-0.015 0.004-0.022 0.007-0.003 0.001-0.007 0.002-0.011 0.004l-1.848 0.912-1.082 0.521c-0.014 0.006-0.026 0.013-0.037 0.021l0.001-0.001c-0.276 0.185-0.455 0.495-0.455 0.848 0 0.454 0.298 0.839 0.709 0.97l0.007 0.002c0.092 0.030 0.197 0.048 0.307 0.048 0.176 0 0.342-0.045 0.486-0.124l-0.005 0.003 0.793-0.422 1.294-0.668 0.775-0.004-3.875 3.857c-0.173 0.171-0.28 0.408-0.28 0.67 0 0.001 0 0.002 0 0.003v-0c0.001 0.525 0.427 0.951 0.952 0.951 0.001 0 0.001 0 0.002 0h-0c0.245 0 0.488-0.093 0.675-0.277l0.751-0.748 0.995-0.743 0.515 0.513-1.773 1.765c-0.173 0.171-0.28 0.408-0.28 0.671 0 0.001 0 0.002 0 0.003v-0c0 0.254 0.099 0.493 0.28 0.673 0.186 0.185 0.43 0.277 0.674 0.277 0.001 0 0.001 0 0.002 0 0.262 0 0.5-0.106 0.672-0.277l-0 0 2.565-2.555c0.004-0.004 0.009-0.005 0.013-0.009l2.952-3.233 1.983 0.282c0.012 0.002 0.025 0.003 0.039 0.003 0.040 0 0.078-0.008 0.113-0.022l-0.002 0.001c0.010-0.004 0.019-0.009 0.028-0.013 0.011-0.005 0.023-0.009 0.033-0.015l1.836-1.219c0.007-0.005 0.010-0.012 0.017-0.017s0.016-0.008 0.023-0.014l0.727-0.681c0.198-0.186 0.322-0.45 0.322-0.743 0-0.229-0.075-0.44-0.203-0.61l0.002 0.003zM29.789 17.011c-0.099 0.053-0.211 0.064-0.319 0.030-0.168-0.053-0.288-0.208-0.288-0.39 0-0.135 0.065-0.254 0.166-0.329l0.001-0.001 0.751-0.361 0.181 0.528 0.076 0.222-0.567 0.301zM31.787 15.967l-0.885 0.457-0.146-0.427-0.105-0.307 1.158-0.571-0.023 0.848zM40.415 12.184c0 0.525-0.125 1.020-0.342 1.463l-2.389-1.085c-0.025-0.329-0.196-0.613-0.447-0.791l-0.003-0.002 0.837-2.777c1.359 0.432 2.345 1.699 2.345 3.193zM33.679 12.184c0-1.849 1.511-3.352 3.368-3.352 0.145 0 0.286 0.012 0.426 0.030l-0.818 2.716c-0.011 0-0.021-0.003-0.033-0.003-0 0-0 0-0.001 0-0.59 0-1.068 0.477-1.069 1.066v0c0.002 0.589 0.48 1.067 1.069 1.067 0 0 0 0 0.001 0h-0c0.397 0 0.74-0.219 0.925-0.54l2.207 1.003c-0.614 0.827-1.597 1.366-2.707 1.366-1.857 0-3.368-1.504-3.368-3.353zM37.083 12.641c0 0.252-0.207 0.457-0.461 0.457-0 0-0.001 0-0.001 0-0.253 0-0.458-0.204-0.459-0.457v-0c0-0.252 0.207-0.457 0.461-0.457s0.461 0.205 0.461 0.457zM29.98 21.227c-0.063 0.062-0.149 0.1-0.244 0.1s-0.181-0.038-0.244-0.1l0 0c-0.062-0.062-0.101-0.147-0.101-0.241s0.038-0.18 0.101-0.241l0-0 0.55-0.548 0.486 0.484-0.548 0.546zM31.816 23.36c-0.063 0.062-0.149 0.101-0.244 0.101s-0.181-0.038-0.244-0.1l0 0c-0.062-0.061-0.101-0.147-0.101-0.241s0.039-0.18 0.101-0.241l0-0 0.55-0.548 0.487 0.484-0.548 0.546zM33.806 21.378c-0 0-0.001 0-0.001 0.001l-1.009 1.006-0.487-0.484 1.008-1.003c0 0 0.001 0 0.001-0.001 0.023-0.023 0.037-0.050 0.051-0.077 0.004-0.008 0.012-0.015 0.015-0.023 0.009-0.024 0.011-0.049 0.015-0.074 0.002-0.014 0.008-0.027 0.008-0.041 0-0.020-0.007-0.040-0.012-0.060-0.004-0.018-0.004-0.037-0.011-0.055-0.012-0.029-0.031-0.054-0.052-0.079-0.006-0.007-0.008-0.015-0.014-0.022h-0l-0.001-0.001-0.918-0.914c-0.010-0.010-0.022-0.014-0.033-0.022-0.015-0.012-0.031-0.023-0.048-0.032l-0.002-0.001c-0.015-0.007-0.033-0.014-0.051-0.018l-0.002-0c-0.017-0.005-0.037-0.009-0.058-0.011l-0.001-0c-0.004-0-0.008-0-0.012-0-0.015 0-0.030 0.001-0.044 0.003l0.002-0c-0.022 0.002-0.042 0.006-0.062 0.012l0.002-0.001c-0.021 0.007-0.038 0.016-0.055 0.026l0.001-0.001c-0.011 0.006-0.024 0.009-0.035 0.016l-1.013 0.757-0.515-0.513 1.371-1.364 2.492 2.451-0.53 0.525zM37.702 17.368c-0.009-0.001-0.017 0.002-0.026 0.002-0.005-0-0.010-0-0.016-0-0.036 0-0.071 0.006-0.103 0.017l0.002-0.001c-0.021 0.008-0.039 0.017-0.056 0.028l0.001-0.001c-0.018 0.011-0.033 0.022-0.048 0.035l0-0c-0.007 0.006-0.016 0.009-0.023 0.017l-2.685 2.941-2.473-2.433 1.619-1.61c0.055-0.055 0.089-0.131 0.089-0.216 0-0.168-0.136-0.305-0.305-0.305-0.001 0-0.001 0-0.002 0h0l-1.268 0.007 0.016-0.919 1.774 0.015c0.722 0.741 1.73 1.201 2.845 1.201 0.001 0 0.001 0 0.002 0h-0c0.25 0 0.494-0.026 0.731-0.070 0.023 0.018 0.045 0.037 0.074 0.049l1.377 0.549 0.087 0.433 0.102 0.506-1.716-0.244zM40.012 17.47l-0.179-0.89 0.827-0.617 0.541 0.718-1.189 0.789zM42.157 15.852l-0.479 0.449-0.532-0.707 0.475-0.364c0.089-0.069 0.2-0.096 0.31-0.082 0.111 0.015 0.208 0.073 0.275 0.162 0.050 0.067 0.080 0.152 0.080 0.243 0 0.117-0.050 0.223-0.129 0.298l-0 0z"></path>
<path style="fill: var(--color3, #2e2f42)" d="M36.344 17.454l-1.225-1.219c-0.055-0.055-0.131-0.089-0.215-0.089s-0.16 0.034-0.215 0.089v0l-1.224 1.219c-0.055 0.055-0.089 0.132-0.089 0.216s0.034 0.161 0.089 0.216v0l1.224 1.219c0.055 0.055 0.131 0.089 0.215 0.089s0.16-0.034 0.215-0.089v0l1.225-1.219c0.055-0.055 0.090-0.132 0.090-0.216s-0.034-0.161-0.090-0.216v0zM34.905 18.459l-0.792-0.789 0.792-0.789 0.793 0.789-0.793 0.789zM38.38 9.755l-0.147 0.592c0.041 0.010 0.993 0.258 0.993 1.228h0.609c0-1.153-0.952-1.695-1.455-1.82zM39.835 12.184h-0.609v0.61h0.609v-0.61z"></path>
</symbol>
<symbol id="icon-Icon-3-1" viewBox="0 0 75 32">
<path style="fill: var(--color2, #f4f4fd)" d="M1.143 0.143h73.143c0.552 0 1 0.448 1 1v29.714c0 0.552-0.448 1-1 1h-73.143c-0.552 0-1-0.448-1-1v-29.714c0-0.552 0.448-1 1-1z"></path>
<path style="fill: var(--color1, #4d5ae5)" d="M37.1 15.409h0.609v2.741h-0.609v-2.741zM39.537 16.627h0.609v1.523h-0.609v-1.523zM34.663 17.541h0.609v0.609h-0.609v-0.609zM32.836 17.236h0.609v0.914h-0.609v-0.914z"></path>
<path style="fill: var(--color3, #2e2f42)" d="M29.485 23.023h14.621c0.505 0 0.914-0.409 0.914-0.914v0-1.219c0-0.505-0.409-0.914-0.914-0.914v0h-0.305v-7.596l1.73-1.639c0.119 0.060 0.258 0.095 0.407 0.095 0.508 0 0.919-0.412 0.919-0.919s-0.411-0.919-0.919-0.919c-0.508 0-0.919 0.412-0.919 0.919 0 0.141 0.032 0.275 0.088 0.394l-0.002-0.006-1.304 1.236v-0.703c0-0.505-0.409-0.914-0.914-0.914h-12.184c-0.505 0-0.914 0.409-0.914 0.914v0 9.138h-0.305c-0.505 0-0.914 0.409-0.914 0.914 0 0 0 0 0 0v0 1.219c0 0.505 0.409 0.914 0.914 0.914v0zM45.934 9.621c0.168 0 0.305 0.136 0.305 0.305s-0.136 0.305-0.305 0.305v0c-0.168 0-0.305-0.136-0.305-0.305s0.136-0.305 0.305-0.305v0zM30.399 10.839c0-0.169 0.136-0.305 0.305-0.305h12.184c0.168 0 0.305 0.137 0.305 0.305v1.279l-0.609 0.579v-1.249c0-0.168-0.136-0.305-0.305-0.305h-10.966c-0.168 0-0.305 0.136-0.305 0.305v7.615c0 0.169 0.136 0.305 0.305 0.305h10.966c0.168 0 0.305-0.137 0.305-0.305v-5.528l0.609-0.577v7.019h-12.793v-9.138zM33.141 14.799c-0.001 0-0.002 0-0.003 0-0.505 0-0.914 0.409-0.914 0.914s0.409 0.914 0.914 0.914c0.247 0 0.471-0.098 0.635-0.257l-0 0 1.059 0.531c0.123 0.061 0.272 0.033 0.364-0.070l2.251-2.532 2.213 1.658c0.119 0.089 0.285 0.079 0.392-0.023l1.923-1.821v4.646h-10.357v-7.006h10.357v1.52l-2.155 2.041-2.231-1.673c-0.050-0.038-0.114-0.061-0.183-0.061-0.090 0-0.172 0.039-0.227 0.102l-0 0-2.282 2.567-0.853-0.427c0.006-0.037 0.010-0.073 0.012-0.111 0-0.505-0.409-0.914-0.914-0.914v0zM33.445 15.713c0 0.003 0 0.006 0 0.009 0 0.168-0.136 0.305-0.305 0.305s-0.305-0.136-0.305-0.305c0-0.003 0-0.007 0-0.010v0c0.005-0.164 0.14-0.296 0.305-0.296s0.3 0.131 0.305 0.295v0zM35.273 20.587h3.046v0.305c0 0.168-0.136 0.305-0.305 0.305h-2.437c-0.168-0-0.304-0.136-0.305-0.305v0-0.305zM29.181 20.891c0-0.168 0.137-0.305 0.305-0.305h5.178v0.305c0 0.505 0.409 0.914 0.914 0.914v0h2.437c0.505 0 0.914-0.409 0.914-0.914v0-0.305h5.178c0.168 0 0.305 0.136 0.305 0.305v1.219c0 0.168-0.137 0.305-0.305 0.305h-14.621c-0.168-0-0.304-0.136-0.305-0.305v0-1.219z"></path>
</symbol>
<symbol id="icon-Icon-2-1" viewBox="0 0 75 32">
<path style="fill: var(--color2, #f4f4fd)" d="M1.143 0.143h73.143c0.552 0 1 0.448 1 1v29.714c0 0.552-0.448 1-1 1h-73.143c-0.552 0-1-0.448-1-1v-29.714c0-0.552 0.448-1 1-1z"></path>
<path style="fill: var(--color3, #2e2f42)" d="M46.455 15.601c-0.001-4.83-3.917-8.744-8.747-8.743s-8.745 3.917-8.744 8.747c0.001 3.879 2.527 7.167 6.024 8.312l0.062 0.017c0.035 0.011 0.071 0.017 0.107 0.016 0.069 0 0.137-0.019 0.196-0.053 0.077-0.046 0.135-0.118 0.162-0.204l2.209-7c0.601-0.003 1.087-0.491 1.087-1.093 0-0.604-0.489-1.093-1.093-1.093-0.002 0-0.004 0-0.006 0h0c-0.171 0.001-0.332 0.041-0.475 0.112l0.006-0.003-2.918-2.918c-0.066-0.066-0.157-0.107-0.258-0.107-0.201 0-0.364 0.163-0.364 0.364 0 0.101 0.041 0.192 0.107 0.258v0l2.916 2.919c-0.069 0.138-0.109 0.3-0.109 0.472 0 0.344 0.162 0.65 0.413 0.846l0.002 0.002-2.104 6.67c-4.159-1.532-6.288-6.145-4.756-10.304s6.145-6.288 10.304-4.756c4.159 1.532 6.288 6.145 4.756 10.304-0.769 2.046-2.288 3.661-4.214 4.536l-0.050 0.020-0.227-1.071c-0.036-0.166-0.182-0.289-0.356-0.289-0.093 0-0.179 0.035-0.243 0.093l0-0-2.193 1.957c-0.075 0.067-0.122 0.164-0.122 0.272 0 0.162 0.106 0.299 0.252 0.347l0.003 0.001 2.799 0.893c0.033 0.011 0.072 0.018 0.112 0.018 0.201 0 0.364-0.163 0.364-0.364 0-0.027-0.003-0.053-0.008-0.078l0 0.002-0.223-1.051c3.159-1.357 5.331-4.441 5.331-8.032 0-0.007 0-0.013-0-0.020v0.001zM37.71 15.236c0.201 0 0.365 0.163 0.365 0.365s-0.163 0.365-0.365 0.365v0c-0.201 0-0.365-0.163-0.365-0.365s0.163-0.365 0.365-0.365v0zM38.91 23.73l1.248-1.113 0.345 1.623-1.593-0.51z"></path>
<path style="fill: var(--color1, #4d5ae5)" d="M37.345 8.677v0.729c0 0.201 0.163 0.364 0.364 0.364s0.364-0.163 0.364-0.364v0-0.729c-0.006-0.197-0.167-0.354-0.364-0.354s-0.359 0.157-0.364 0.354v0.001zM30.786 15.236c-0.201 0-0.364 0.163-0.364 0.364s0.163 0.364 0.364 0.364h0.729c0.201 0 0.364-0.163 0.364-0.364s-0.163-0.364-0.364-0.364h-0.729zM44.633 15.965c0.201 0 0.364-0.163 0.364-0.364s-0.163-0.364-0.364-0.364h-0.729c-0.201 0-0.364 0.163-0.364 0.364s0.163 0.364 0.364 0.364h0.729z"></path>
</symbol>
<symbol id="icon-Icon-1-1" viewBox="0 0 75 32">
<path style="fill: var(--color2, #f4f4fd)" d="M1.143 0.143h73.143c0.552 0 1 0.448 1 1v29.714c0 0.552-0.448 1-1 1h-73.143c-0.552 0-1-0.448-1-1v-29.714c0-0.552 0.448-1 1-1z"></path>
<path style="fill: var(--color3, #2e2f42)" d="M46.156 19.484l-4.825-4.86 0.535-2.637c0.138 0.054 0.285 0.082 0.433 0.083h0.004c0.004 0 0.009 0 0.015 0 0.681 0 1.234-0.552 1.234-1.234s-0.552-1.234-1.234-1.234c-0.681 0-1.234 0.552-1.234 1.234 0 0.148 0.026 0.29 0.074 0.422l-0.003-0.009-2.834 0.346-4.623-4.647c-0.055-0.056-0.131-0.091-0.215-0.091h-0c-0.080 0.001-0.157 0.032-0.213 0.089l-0.864 0.859c-0.055 0.055-0.089 0.131-0.089 0.216s0.034 0.16 0.089 0.216v0l0.465 0.471c-0.653 1.178-1.038 2.584-1.038 4.079 0 2.346 0.946 4.471 2.478 6.014l-0.001-0.001c0.024 0.023 0.053 0.042 0.083 0.056-0.018 0.094-0.029 0.202-0.030 0.312v3.536h-3.657c-0.841 0.001-1.523 0.683-1.524 1.524v0.61c0 0.169 0.137 0.305 0.305 0.305h14.019c0.168 0 0.305-0.137 0.305-0.305v-0.609c-0.001-0.841-0.683-1.523-1.524-1.524h-3.657v-1.567c0.573 0.12 1.157 0.181 1.742 0.183 1.474-0.002 2.86-0.379 4.067-1.041l-0.044 0.022 0.467 0.47c0.057 0.058 0.134 0.091 0.215 0.091 0.080-0.001 0.157-0.032 0.213-0.089l0.864-0.859c0.055-0.055 0.089-0.131 0.089-0.216s-0.034-0.16-0.089-0.216v0zM41.874 10.419c0.11-0.109 0.262-0.177 0.43-0.177 0.337 0 0.609 0.273 0.609 0.609s-0.273 0.609-0.609 0.609c-0 0-0 0-0 0h-0.002c-0.335-0.002-0.606-0.274-0.606-0.609 0-0.169 0.069-0.322 0.18-0.432l0-0h-0.001zM41.157 12.422l-0.342 1.683-0.672-0.675 1.014-1.008zM40.811 11.906l-1.097 1.091-0.849-0.853 1.946-0.237zM42.288 23.314c0.505 0 0.914 0.409 0.914 0.914v0.305h-13.409v-0.305c0-0.505 0.409-0.914 0.914-0.914v0h11.581zM38.021 22.095v0.61h-3.048v-0.61h3.048zM34.974 21.486v-2.316c0-0.739 0.684-1.341 1.524-1.341s1.524 0.602 1.524 1.341v2.316h-3.048zM38.631 20.517v-1.347c0-1.075-0.957-1.95-2.133-1.95-0.010-0-0.022-0-0.033-0-0.773 0-1.451 0.404-1.836 1.012l-0.005 0.009c-1.348-1.418-2.178-3.341-2.178-5.457 0-1.322 0.324-2.569 0.897-3.665l-0.021 0.044 10.63 10.691c-1.042 0.541-2.274 0.858-3.581 0.858-0.616 0-1.216-0.071-1.792-0.204l0.053 0.010zM45.082 20.126l-0.429-0.431-11.603-11.672 0.431-0.43 4.534 4.56c0.002 0 0.003 0.004 0.006 0.005l7.494 7.538-0.433 0.43z"></path>
<path style="fill: var(--color1, #4d5ae5)" d="M36.5 18.438h-0.003c-0 0-0.001 0-0.001 0-0.505 0-0.914 0.409-0.914 0.914s0.409 0.914 0.913 0.914h0.003c0 0 0.001 0 0.001 0 0.505 0 0.914-0.409 0.914-0.914s-0.409-0.913-0.913-0.914h-0zM36.714 19.569c-0.055 0.055-0.131 0.089-0.215 0.089-0.168 0-0.305-0.137-0.305-0.305s0.136-0.304 0.304-0.305h0c0.168 0.001 0.303 0.137 0.303 0.305 0 0.084-0.034 0.161-0.090 0.216v0h0.003z"></path>
</symbol>
<symbol id="icon-Ellipse-3-1" viewBox="0 0 32 32">
<path style="fill: var(--color1, #4d5ae5)" d="M32 16c0 0.006 0 0.013 0 0.021 0 4.412-1.791 8.405-4.686 11.293l-0 0c-2.888 2.895-6.881 4.686-11.293 4.686-0.007 0-0.015 0-0.022 0h0.001c-0.006 0-0.013 0-0.021 0-4.412 0-8.405-1.791-11.293-4.686l-0-0c-2.895-2.888-4.686-6.881-4.686-11.293 0-0.007 0-0.014 0-0.021v0.001c0-0.006 0-0.013 0-0.021 0-4.412 1.791-8.405 4.686-11.293l0-0c2.888-2.895 6.881-4.686 11.293-4.686 0.007 0 0.014 0 0.021 0h-0.001c0.006 0 0.013 0 0.021 0 4.412 0 8.405 1.791 11.293 4.686l0 0c2.895 2.888 4.686 6.881 4.686 11.293 0 0.007 0 0.015 0 0.022v-0.001z"></path>
<path style="fill: var(--color2, #f4f4fd)" d="M22.397 22.4h0.003v-4.696c0-2.296-0.494-4.066-3.179-4.066-1.29 0-2.157 0.709-2.51 1.38h-0.038v-1.166h-2.545v8.547h2.651v-4.232c0-1.114 0.211-2.192 1.59-2.192 1.36 0 1.38 1.272 1.38 2.264v4.16h2.648zM9.811 13.854h2.654v8.546h-2.654v-8.546zM11.137 9.6c-0.848 0-1.537 0.688-1.537 1.536s0.688 1.552 1.537 1.552 1.538-0.704 1.538-1.552c-0.001-0.847-0.69-1.536-1.538-1.536z"></path>
</symbol>
<symbol id="icon-Ellipse-2-1" viewBox="0 0 32 32">
<path style="fill: var(--color1, #4d5ae5)" d="M32 16c0 0.006 0 0.013 0 0.021 0 4.412-1.791 8.405-4.686 11.293l-0 0c-2.888 2.895-6.881 4.686-11.293 4.686-0.007 0-0.015 0-0.022 0h0.001c-0.006 0-0.013 0-0.021 0-4.412 0-8.405-1.791-11.293-4.686l-0-0c-2.895-2.888-4.686-6.881-4.686-11.293 0-0.007 0-0.014 0-0.021v0.001c0-0.006 0-0.013 0-0.021 0-4.412 1.791-8.405 4.686-11.293l0-0c2.888-2.895 6.881-4.686 11.293-4.686 0.007 0 0.014 0 0.021 0h-0.001c0.006 0 0.013 0 0.021 0 4.412 0 8.405 1.791 11.293 4.686l0 0c2.895 2.888 4.686 6.881 4.686 11.293 0 0.007 0 0.015 0 0.022v-0.001z"></path>
<path style="fill: var(--color2, #f4f4fd)" d="M18.132 11.726h1.168v-2.035c-0.495-0.058-1.068-0.091-1.65-0.091-0.019 0-0.037 0-0.056 0h0.003c-1.685 0-2.838 1.060-2.838 3.008v1.792h-1.859v2.275h1.859v5.725h2.279v-5.724h1.784l0.283-2.276h-2.068v-1.568c0.001-0.658 0.178-1.107 1.094-1.107z"></path>
</symbol>
<symbol id="icon-Ellipse-1-1" viewBox="0 0 32 32">
<path style="fill: var(--color1, #4d5ae5)" d="M32 16c0 0.006 0 0.013 0 0.021 0 4.412-1.791 8.405-4.686 11.293l-0 0c-2.888 2.895-6.881 4.686-11.293 4.686-0.007 0-0.015 0-0.022 0h0.001c-0.006 0-0.013 0-0.021 0-4.412 0-8.405-1.791-11.293-4.686l-0-0c-2.895-2.888-4.686-6.881-4.686-11.293 0-0.007 0-0.014 0-0.021v0.001c0-0.006 0-0.013 0-0.021 0-4.412 1.791-8.405 4.686-11.293l0-0c2.888-2.895 6.881-4.686 11.293-4.686 0.007 0 0.014 0 0.021 0h-0.001c0.006 0 0.013 0 0.021 0 4.412 0 8.405 1.791 11.293 4.686l0 0c2.895 2.888 4.686 6.881 4.686 11.293 0 0.007 0 0.015 0 0.022v-0.001z"></path>
<path style="fill: var(--color2, #f4f4fd)" d="M22.4 12.031c-0.44 0.197-0.95 0.343-1.485 0.412l-0.027 0.003c0.544-0.327 0.953-0.831 1.149-1.432l0.005-0.018c-0.479 0.289-1.037 0.509-1.63 0.63l-0.034 0.006c-0.48-0.512-1.16-0.83-1.915-0.83-1.449 0-2.624 1.175-2.624 2.624 0 0 0 0.001 0 0.001v-0c0 0.208 0.018 0.408 0.061 0.598-2.187-0.11-4.111-1.151-5.398-2.731l-0.011-0.014c-0.225 0.379-0.358 0.836-0.358 1.324 0 0.906 0.458 1.704 1.155 2.177l0.009 0.006c-0.437-0.012-0.844-0.13-1.199-0.33l0.013 0.007v0.029c0.002 1.266 0.895 2.322 2.085 2.575l0.017 0.003c-0.2 0.055-0.43 0.086-0.668 0.086-0.007 0-0.014-0-0.022-0h0.001c-0.012 0-0.027 0-0.041 0-0.161 0-0.319-0.016-0.471-0.048l0.015 0.003c0.349 1.049 1.309 1.798 2.449 1.828l0.003 0c-0.886 0.698-2.018 1.119-3.248 1.119-0.002 0-0.004 0-0.006 0h0c-0.215 0-0.422-0.010-0.628-0.036 1.13 0.738 2.515 1.178 4.002 1.178 0.008 0 0.017 0 0.025-0h-0.001c4.829 0 7.469-4 7.469-7.467 0-0.116-0.004-0.228-0.010-0.339 0.52-0.375 0.956-0.827 1.303-1.344l0.012-0.019z"></path>
</symbol>
<symbol id="icon-Ellipse-1" viewBox="0 0 32 32">
<path style="fill: var(--color1, #4d5ae5)" d="M32 16c0 0.006 0 0.013 0 0.021 0 4.412-1.791 8.405-4.686 11.293l-0 0c-2.888 2.895-6.881 4.686-11.293 4.686-0.007 0-0.015 0-0.022 0h0.001c-0.006 0-0.013 0-0.021 0-4.412 0-8.405-1.791-11.293-4.686l-0-0c-2.895-2.888-4.686-6.881-4.686-11.293 0-0.007 0-0.014 0-0.021v0.001c0-0.006 0-0.013 0-0.021 0-4.412 1.791-8.405 4.686-11.293l0-0c2.888-2.895 6.881-4.686 11.293-4.686 0.007 0 0.014 0 0.021 0h-0.001c0.006 0 0.013 0 0.021 0 4.412 0 8.405 1.791 11.293 4.686l0 0c2.895 2.888 4.686 6.881 4.686 11.293 0 0.007 0 0.015 0 0.022v-0.001z"></path>
<path style="fill: var(--color2, #f4f4fd)" d="M22.387 13.363c-0.030-0.68-0.14-1.148-0.298-1.553-0.17-0.444-0.421-0.823-0.739-1.135l-0.001-0.001c-0.312-0.317-0.69-0.568-1.111-0.73l-0.022-0.007c-0.408-0.158-0.872-0.268-1.552-0.298-0.686-0.032-0.904-0.040-2.641-0.040-1.738 0-1.956 0.008-2.638 0.038-0.68 0.030-1.147 0.14-1.552 0.298-0.445 0.169-0.824 0.421-1.135 0.739l-0.001 0.001c-0.317 0.312-0.568 0.69-0.73 1.111l-0.007 0.022c-0.158 0.408-0.267 0.872-0.298 1.552-0.032 0.686-0.040 0.904-0.040 2.642s0.008 1.955 0.038 2.638c0.030 0.68 0.14 1.148 0.298 1.553 0.162 0.43 0.415 0.815 0.74 1.136 0.32 0.324 0.708 0.577 1.133 0.737 0.408 0.158 0.872 0.268 1.553 0.298 0.682 0.030 0.9 0.038 2.638 0.038s1.955-0.008 2.638-0.038c0.68-0.030 1.148-0.14 1.553-0.298 0.863-0.34 1.533-1.010 1.865-1.85l0.008-0.022c0.158-0.408 0.268-0.874 0.298-1.554 0.030-0.682 0.038-0.9 0.038-2.638s-0.002-1.956-0.032-2.638zM21.235 18.589c-0.028 0.626-0.133 0.963-0.221 1.188-0.22 0.56-0.655 0.995-1.201 1.211l-0.014 0.005c-0.225 0.087-0.565 0.192-1.187 0.219-0.675 0.030-0.878 0.038-2.586 0.038s-1.913-0.008-2.586-0.038c-0.625-0.027-0.962-0.132-1.188-0.22-0.288-0.108-0.534-0.27-0.735-0.477l-0-0c-0.207-0.202-0.369-0.447-0.473-0.721l-0.005-0.014c-0.088-0.225-0.192-0.565-0.22-1.187-0.030-0.675-0.038-0.878-0.038-2.586s0.008-1.913 0.038-2.586c0.028-0.625 0.133-0.963 0.22-1.188 0.102-0.278 0.266-0.53 0.48-0.735 0.208-0.212 0.458-0.375 0.736-0.478 0.224-0.088 0.565-0.192 1.187-0.22 0.675-0.030 0.878-0.038 2.586-0.038 1.71 0 1.912 0.008 2.586 0.038 0.625 0.028 0.962 0.133 1.188 0.22 0.277 0.102 0.53 0.266 0.734 0.478 0.213 0.208 0.376 0.458 0.478 0.736 0.088 0.224 0.193 0.565 0.221 1.187 0.030 0.675 0.037 0.878 0.037 2.586s-0.007 1.908-0.037 2.583z"></path>
<path style="fill: var(--color2, #f4f4fd)" d="M16.024 12.713c-1.785 0.041-3.216 1.497-3.216 3.288s1.431 3.247 3.213 3.288l0.004 0c1.785-0.041 3.216-1.497 3.216-3.288s-1.431-3.247-3.212-3.288l-0.004-0zM16.024 18.134c-0.012 0-0.027 0-0.041 0-1.178 0-2.134-0.955-2.134-2.134s0.955-2.134 2.134-2.134c0.015 0 0.029 0 0.043 0l-0.002-0c1.16 0.023 2.092 0.969 2.092 2.133s-0.932 2.11-2.090 2.133l-0.002 0zM20.21 12.583c0 0.424-0.344 0.768-0.768 0.768s-0.768-0.344-0.768-0.768v0c0-0.424 0.344-0.768 0.768-0.768s0.768 0.344 0.768 0.768v0z"></path>
</symbol>
</defs>
</svg>




